<?xml version="1.0" encoding="utf-8"?>
<!-- Generator: Adobe Illustrator 15.0.0, SVG Export Plug-In . SVG Version: 6.00 Build 0)  -->
<!DOCTYPE svg PUBLIC "-//W3C//DTD SVG 1.1//EN" "http://www.w3.org/Graphics/SVG/1.1/DTD/svg11.dtd">
<svg version="1.1" id="Layer_1" xmlns="http://www.w3.org/2000/svg" xmlns:xlink="http://www.w3.org/1999/xlink" x="0px" y="0px"
	 width="32.58px" height="31.77px" viewBox="0 0 32.58 31.77" enable-background="new 0 0 32.58 31.77" xml:space="preserve">
<path d="M16.289,0C7.294,0,0,7.293,0,16.291c0,7.193,4.667,13.302,11.141,15.454c0.814,0.149,1.112-0.354,1.112-0.783
	c0-0.389-0.014-1.412-0.022-2.771c-4.531,0.984-5.487-2.184-5.487-2.184c-0.741-1.883-1.809-2.385-1.809-2.385
	c-1.479-1.011,0.112-0.988,0.112-0.988c1.635,0.113,2.495,1.678,2.495,1.678c1.453,2.49,3.812,1.771,4.741,1.355
	c0.148-1.056,0.569-1.771,1.034-2.181c-3.617-0.409-7.42-1.809-7.42-8.049c0-1.777,0.635-3.231,1.677-4.371
	c-0.167-0.412-0.727-2.067,0.16-4.311c0,0,1.368-0.438,4.479,1.67c1.299-0.361,2.693-0.542,4.078-0.548
	c1.384,0.006,2.776,0.187,4.079,0.548c3.109-2.108,4.475-1.67,4.475-1.67c0.889,2.243,0.33,3.898,0.162,4.311
	c1.043,1.14,1.674,2.594,1.674,4.371c0,6.256-3.809,7.633-7.438,8.038c0.586,0.502,1.105,1.496,1.105,3.017
	c0,2.18-0.021,3.936-0.021,4.471c0,0.436,0.293,0.94,1.121,0.781c6.467-2.156,11.129-8.261,11.129-15.452
	C32.579,7.293,25.286,0,16.289,0z"/>
</svg>
