<?xml version="1.0" encoding="UTF-8" standalone="no"?>
<svg
   width="380"
   height="380"
   viewBox="-12 -7 380 380"
   fill="none"
   version="1.1"
   id="svg1"
   sodipodi:docname="whatsapp.svg"
   inkscape:version="1.3.2 (091e20ef0f, 2023-11-25)"
   xmlns:inkscape="http://www.inkscape.org/namespaces/inkscape"
   xmlns:sodipodi="http://sodipodi.sourceforge.net/DTD/sodipodi-0.dtd"
   xmlns="http://www.w3.org/2000/svg"
   xmlns:svg="http://www.w3.org/2000/svg">
  <defs
     id="defs1" />
  <sodipodi:namedview
     id="namedview1"
     pagecolor="#ffffff"
     bordercolor="#000000"
     borderopacity="0.25"
     inkscape:showpageshadow="2"
     inkscape:pageopacity="0.0"
     inkscape:pagecheckerboard="0"
     inkscape:deskcolor="#d1d1d1"
     inkscape:zoom="2.2697737"
     inkscape:cx="187.68391"
     inkscape:cy="185.48104"
     inkscape:window-width="2256"
     inkscape:window-height="1427"
     inkscape:window-x="0"
     inkscape:window-y="0"
     inkscape:window-maximized="1"
     inkscape:current-layer="svg1" />
  <path
     fill-rule="evenodd"
     clip-rule="evenodd"
     d="M 307.546,52.5655 C 273.709,18.685 228.706,0.0171895 180.756,0 81.951,0 1.53846,80.404 1.50408,179.235 1.48689,210.829 9.74646,241.667 25.4319,268.844 L 0,361.736 95.0236,336.811 c 26.1794,14.285 55.6594,21.805 85.6554,21.814 h 0.077 c 98.788,0 179.21,-80.413 179.244,-179.244 0.017,-47.898 -18.608,-92.9263 -52.454,-126.8069 z M 180.756,328.354 h -0.06 c -26.73,-0.008 -52.952,-7.194 -75.831,-20.765 L 99.4242,304.358 43.034,319.149 58.0834,264.168 54.5423,258.53 C 39.6304,234.809 31.749,207.391 31.7662,179.244 31.8006,97.1036 98.6334,30.2707 180.817,30.2707 c 39.793,0.0172 77.198,15.5308 105.328,43.6958 28.131,28.1565 43.61,65.5955 43.593,105.3975 -0.035,82.149 -66.867,148.982 -148.982,148.982 z m 81.719,-111.577 c -4.478,-2.243 -26.497,-13.073 -30.606,-14.568 -4.108,-1.496 -7.09,-2.243 -10.073,2.243 -2.982,4.487 -11.568,14.577 -14.181,17.559 -2.613,2.991 -5.226,3.361 -9.704,1.117 -4.477,-2.243 -18.908,-6.97 -36.02,-22.226 -13.313,-11.878 -22.304,-26.54 -24.916,-31.027 -2.613,-4.486 -0.275,-6.91 1.959,-9.136 2.011,-2.011 4.478,-5.234 6.721,-7.847 2.244,-2.613 2.983,-4.486 4.478,-7.469 1.496,-2.991 0.748,-5.603 -0.369,-7.847 -1.118,-2.243 -10.073,-24.289 -13.812,-33.253 -3.636,-8.7321 -7.331,-7.546 -10.073,-7.6921 -2.613,-0.129 -5.595,-0.1547 -8.586,-0.1547 -2.991,0 -7.839,1.1173 -11.947,5.6038 -4.108,4.486 -15.6769,15.324 -15.6769,37.361 0,22.037 16.0469,43.344 18.2899,46.335 2.243,2.991 31.585,48.225 76.51,67.632 10.684,4.615 19.029,7.374 25.535,9.437 10.727,3.412 20.49,2.931 28.208,1.779 8.604,-1.289 26.498,-10.838 30.228,-21.298 3.73,-10.46 3.73,-19.433 2.613,-21.298 -1.117,-1.865 -4.108,-2.991 -8.586,-5.234 z"
     fill="#111B21"
     id="path1"
     style="fill:#98971a;fill-opacity:1" />
</svg>
